<svg width="272" height="272" viewBox="0 0 272 272" fill="none" xmlns="http://www.w3.org/2000/svg">
<rect width="272" height="272" fill="#D9D9D9"/>
<path d="M216.28 106.637V181.57C216.28 188.528 210.639 194.17 203.68 194.17H69.2002C62.2414 194.17 56.6002 188.528 56.6002 181.57V106.637C56.6002 99.6786 62.2414 94.0374 69.2002 94.0374H124.285C130.001 94.0374 134.183 88.6449 132.759 83.1083C132.507 82.1275 133.247 81.1723 134.26 81.1723H156.289H178.895C180.46 81.1723 181.728 82.4405 181.728 84.0048C181.728 89.5457 186.22 94.0374 191.76 94.0374H203.68C210.639 94.0374 216.28 99.6786 216.28 106.637Z" stroke="white" stroke-width="7.2"/>
<mask id="path-3-inside-1_197_324" fill="white">
<rect x="75.0548" y="75" width="22.7898" height="21.3194" rx="4.5"/>
</mask>
<rect x="75.0548" y="75" width="22.7898" height="21.3194" rx="4.5" stroke="white" stroke-width="14.4" mask="url(#path-3-inside-1_197_324)"/>
<mask id="path-4-inside-2_197_324" fill="white">
<rect x="66.2329" y="103.671" width="17.6437" height="81.6019" rx="4.5"/>
</mask>
<rect x="66.2329" y="103.671" width="17.6437" height="81.6019" rx="4.5" stroke="white" stroke-width="14.4" mask="url(#path-4-inside-2_197_324)"/>
<path d="M191.285 141.899C191.285 161.023 175.781 176.527 156.657 176.527C137.532 176.527 122.029 161.023 122.029 141.899C122.029 122.774 137.532 107.271 156.657 107.271C175.781 107.271 191.285 122.774 191.285 141.899Z" stroke="white" stroke-width="7.2"/>
<path d="M191.285 141.899C191.285 161.023 175.781 176.527 156.657 176.527C137.532 176.527 122.029 161.023 122.029 141.899C122.029 122.774 137.532 107.271 156.657 107.271C175.781 107.271 191.285 122.774 191.285 141.899Z" stroke="white" stroke-width="7.2"/>
<path d="M191.285 141.899C191.285 161.023 175.781 176.527 156.657 176.527C137.532 176.527 122.029 161.023 122.029 141.899C122.029 122.774 137.532 107.271 156.657 107.271C175.781 107.271 191.285 122.774 191.285 141.899Z" stroke="white" stroke-width="7.2"/>
<path d="M204.518 110.288C204.518 113.172 202.18 115.509 199.296 115.509C196.412 115.509 194.074 113.172 194.074 110.288C194.074 107.404 196.412 105.066 199.296 105.066C202.18 105.066 204.518 107.404 204.518 110.288Z" stroke="white" stroke-width="7.2"/>
<path d="M204.518 110.288C204.518 113.172 202.18 115.509 199.296 115.509C196.412 115.509 194.074 113.172 194.074 110.288C194.074 107.404 196.412 105.066 199.296 105.066C202.18 105.066 204.518 107.404 204.518 110.288Z" stroke="white" stroke-width="7.2"/>
<path d="M204.518 110.288C204.518 113.172 202.18 115.509 199.296 115.509C196.412 115.509 194.074 113.172 194.074 110.288C194.074 107.404 196.412 105.066 199.296 105.066C202.18 105.066 204.518 107.404 204.518 110.288Z" stroke="white" stroke-width="7.2"/>
<path d="M191.285 141.899C191.285 161.023 175.781 176.527 156.657 176.527C137.532 176.527 122.029 161.023 122.029 141.899C122.029 122.774 137.532 107.271 156.657 107.271C175.781 107.271 191.285 122.774 191.285 141.899Z" stroke="white" stroke-width="7.2"/>
<path d="M191.285 141.899C191.285 161.023 175.781 176.527 156.657 176.527C137.532 176.527 122.029 161.023 122.029 141.899C122.029 122.774 137.532 107.271 156.657 107.271C175.781 107.271 191.285 122.774 191.285 141.899Z" stroke="white" stroke-width="7.2"/>
<path d="M191.285 141.899C191.285 161.023 175.781 176.527 156.657 176.527C137.532 176.527 122.029 161.023 122.029 141.899C122.029 122.774 137.532 107.271 156.657 107.271C175.781 107.271 191.285 122.774 191.285 141.899Z" stroke="white" stroke-width="7.2"/>
<path d="M179.522 141.898C179.522 154.526 169.285 164.764 156.657 164.764C144.029 164.764 133.791 154.526 133.791 141.898C133.791 129.27 144.029 119.033 156.657 119.033C169.285 119.033 179.522 129.27 179.522 141.898Z" stroke="white" stroke-width="7.2"/>
<path d="M179.522 141.898C179.522 154.526 169.285 164.764 156.657 164.764C144.029 164.764 133.791 154.526 133.791 141.898C133.791 129.27 144.029 119.033 156.657 119.033C169.285 119.033 179.522 129.27 179.522 141.898Z" stroke="white" stroke-width="7.2"/>
<path d="M179.522 141.898C179.522 154.526 169.285 164.764 156.657 164.764C144.029 164.764 133.791 154.526 133.791 141.898C133.791 129.27 144.029 119.033 156.657 119.033C169.285 119.033 179.522 129.27 179.522 141.898Z" stroke="white" stroke-width="7.2"/>
</svg>
