<svg width="69" height="69" viewBox="0 0 69 69" fill="none" xmlns="http://www.w3.org/2000/svg">
<rect x="34.5" y="69" width="11.5" height="34.5" transform="rotate(-90 34.5 69)" fill="#FFC34F"/>
<rect x="57.5" y="69" width="34.5" height="11.5" transform="rotate(-90 57.5 69)" fill="#FFC34F"/>
<path d="M64.2083 62.292L34.5 62.292V64.2087H64.2083V62.292Z" fill="black"/>
<path d="M64.2083 34.5H62.2917V64.2083H64.2083V34.5Z" fill="black"/>
<rect width="57.5" height="57.5" fill="white"/>
<path d="M27.4797 26.8778L21.2272 32.1964C19.5175 33.6507 17.0879 33.8997 15.1187 32.8224C11.2283 30.694 11.4049 25.0479 15.4206 23.1667L35.1171 13.9399C39.1408 12.055 43.6585 15.3606 43.0795 19.766L40.518 39.2563C39.9976 43.2161 35.6312 45.3871 32.16 43.4119L29.9939 42.1793C27.3063 40.6501 26.3573 37.2381 27.8693 34.5408L30.6861 29.5156C31.8365 27.4634 29.2717 25.3535 27.4797 26.8778Z" fill="black" stroke="black" stroke-width="2.8122"/>
</svg>
