<svg width="36" height="36" viewBox="0 0 36 36" fill="none" xmlns="http://www.w3.org/2000/svg">
<path d="M12.2 5.39831L8.10787 1.60123C7.08876 0.6556 5.53547 0.478724 4.48172 1.38559C2.94574 2.70746 1.83023 4.26593 1.16215 6.06921C1.06532 6.33058 1.01583 6.60755 1.00813 6.88617C0.853778 12.4717 2.87019 17.0542 9.34515 24.1767C16.0708 30.6853 20.442 33.4841 27.5919 34.9227C27.8517 34.975 28.1199 34.9935 28.3834 34.9652C31.1867 34.6643 33.246 33.2496 34.7467 31.2612C35.5925 30.1405 35.265 28.5889 34.2586 27.6098C33.0231 26.408 31.7685 25.1061 30.4729 23.8C29.1693 22.486 27.0847 22.7322 25.8766 24.1345C24.9705 25.1862 24.1272 25.8395 23.121 25.8776C22.8696 25.8872 22.6208 25.8189 22.3854 25.7299C17.6536 23.9416 17.1956 22.994 14.5624 20.3815C12.2793 17.7268 10.6586 16.3245 9.90332 13.2837C9.82287 12.9598 9.80142 12.6191 9.88316 12.2955C10.1905 11.0787 11.0343 10.3073 12.0249 9.57184C13.4354 8.52455 13.4878 6.59329 12.2 5.39831Z" fill="white" stroke="white" stroke-width="1.23445"/>
</svg>
